<svg width="26" height="26" viewBox="0 0 26 26" fill="none" xmlns="http://www.w3.org/2000/svg">
<circle cx="13" cy="13" r="7.5" stroke="#2F2F2F" stroke-width="5"/>
<path d="M10.5234 0.510996C10.5674 0.217284 10.8197 0 11.1167 0H14.8833C15.1803 0 15.4326 0.217284 15.4766 0.510996L15.8966 3.311C15.9511 3.67376 15.6701 4 15.3033 4H10.6967C10.3299 4 10.0489 3.67376 10.1034 3.311L10.5234 0.510996Z" fill="#2F2F2F"/>
<path d="M15.4766 25.489C15.4326 25.7827 15.1803 26 14.8833 26L11.1167 26C10.8197 26 10.5674 25.7827 10.5234 25.489L10.1034 22.689C10.0489 22.3262 10.3299 22 10.6967 22L15.3033 22C15.6701 22 15.9511 22.3262 15.8966 22.689L15.4766 25.489Z" fill="#2F2F2F"/>
<path d="M22.5774 4.61065C22.8538 4.50195 23.1682 4.61181 23.3167 4.86902L25.1999 8.13097C25.3484 8.38818 25.2864 8.71532 25.0541 8.90033L22.8392 10.6641C22.5523 10.8926 22.1293 10.8124 21.9458 10.4947L19.6426 6.50529C19.4591 6.18761 19.6012 5.78118 19.9426 5.64692L22.5774 4.61065Z" fill="#2F2F2F"/>
<path d="M3.42256 21.3894C3.14617 21.4981 2.83184 21.3882 2.68334 21.131L0.800056 17.869C0.651557 17.6118 0.713577 17.2847 0.94591 17.0997L3.16078 15.3359C3.44774 15.1074 3.87075 15.1876 4.05416 15.5053L6.35744 19.4947C6.54086 19.8124 6.3988 20.2188 6.05743 20.3531L3.42256 21.3894Z" fill="#2F2F2F"/>
<path d="M25.0541 17.0996C25.2864 17.2846 25.3484 17.6118 25.1999 17.869L23.3167 21.1309C23.1682 21.3881 22.8538 21.498 22.5774 21.3893L19.9426 20.353C19.6012 20.2188 19.4591 19.8123 19.6426 19.4947L21.9458 15.5053C22.1293 15.1876 22.5523 15.1074 22.8392 15.3359L25.0541 17.0996Z" fill="#2F2F2F"/>
<path d="M0.94591 8.90038C0.713576 8.71537 0.651557 8.38822 0.800056 8.13101L2.68334 4.86906C2.83184 4.61186 3.14617 4.50199 3.42256 4.61069L6.05743 5.64696C6.3988 5.78122 6.54086 6.18766 6.35745 6.50533L4.05416 10.4947C3.87075 10.8124 3.44774 10.8926 3.16078 10.6641L0.94591 8.90038Z" fill="#2F2F2F"/>
</svg>
