<svg width="37" height="22" viewBox="0 0 37 22" fill="none" xmlns="http://www.w3.org/2000/svg">
<rect x="1" y="1" width="35" height="20" rx="1" stroke="#2F2F2F" stroke-width="2" stroke-linejoin="round"/>
<rect x="8" y="14" width="21" height="4" rx="1" fill="#222222"/>
<rect x="30" y="14" width="4" height="4" rx="1" fill="#2F2F2F"/>
<rect x="27" y="9" width="7" height="4" rx="1" fill="#2F2F2F"/>
<rect x="27" y="4" width="7" height="4" rx="1" fill="#2F2F2F"/>
<rect x="3" y="14" width="4" height="4" rx="1" fill="#2F2F2F"/>
<rect x="9" y="4" width="4" height="4" rx="1" fill="#2F2F2F"/>
<rect x="15" y="4" width="4" height="4" rx="1" fill="#2F2F2F"/>
<rect x="21" y="4" width="4" height="4" rx="1" fill="#2F2F2F"/>
<rect x="22" y="9" width="4" height="4" rx="1" fill="#2F2F2F"/>
<rect x="17" y="9" width="4" height="4" rx="1" fill="#2F2F2F"/>
<rect x="11" y="9" width="4" height="4" rx="1" fill="#2F2F2F"/>
<rect x="3" y="9" width="6" height="4" rx="1" fill="#2F2F2F"/>
<rect x="3" y="4" width="4" height="4" rx="1" fill="#2F2F2F"/>
</svg>
