<svg width="43" height="43" viewBox="0 0 43 43" fill="none" xmlns="http://www.w3.org/2000/svg">
<path d="M0 3.19141C0 1.42773 1.42773 0 3.19141 0H39.8086C41.5723 0 43 1.42773 43 3.19141C43 4.95508 41.5723 6.38281 39.8086 6.38281H3.19141C1.42773 6.38281 0 4.95508 0 3.19141Z" fill="black"/>
<path d="M0 21.668C0 19.9043 1.42773 18.4766 3.19141 18.4766H39.8086C41.5723 18.4766 43 19.9043 43 21.668C43 23.4316 41.5723 24.8594 39.8086 24.8594H3.19141C1.42773 24.8594 0 23.4316 0 21.668Z" fill="black"/>
<path d="M0 39.8086C0 38.0449 1.42773 36.6172 3.19141 36.6172H39.8086C41.5723 36.6172 43 38.0449 43 39.8086C43 41.5723 41.5723 43 39.8086 43H3.19141C1.42773 43 0 41.5723 0 39.8086Z" fill="black"/>
</svg>
