<svg id="add-btnIMg" width="25" height="24" viewBox="0 0 25 24" fill="none" xmlns="http://www.w3.org/2000/svg">
    <path d="M24.2635 10.2C24.4475 10.2 24.5968 10.3493 24.5968 10.5333V13.4667C24.5968 13.6507 24.4475 13.8 24.2635 13.8H0.930166C0.746166 13.8 0.596832 13.6507 0.596832 13.4667V10.5333C0.596832 10.3493 0.746166 10.2 0.930166 10.2H24.2635ZM10.7968 0.333333C10.7968 0.149333 10.9462 0 11.1302 0H14.0635C14.2475 0 14.3968 0.149333 14.3968 0.333333V23.6667C14.3968 23.8507 14.2475 24 14.0635 24H11.1302C10.9462 24 10.7968 23.8507 10.7968 23.6667V0.333333Z" fill="url(#paint0_linear_113_7)"/>
    <defs>
        <linearGradient id="paint0_linear_113_7" x1="-6.70983" y1="-1.92" x2="28.5435" y2="43.2" gradientUnits="userSpaceOnUse">
            <stop stop-color="#77CDFF"/>
            <stop offset="1" stop-color="#556CFF"/>
        </linearGradient>
    </defs>
</svg>