<svg width="26" height="26" viewBox="0 0 26 26" fill="none" xmlns="http://www.w3.org/2000/svg">
    <path d="M22.1924 3.80761C20.9852 2.60045 19.5521 1.64288 17.9749 0.989565C16.3976 0.336254 14.7072 -2.8491e-07 13 0C11.2928 2.84911e-07 9.60235 0.336256 8.02511 0.989567C6.44788 1.64288 5.01477 2.60045 3.80761 3.80761C2.60045 5.01478 1.64288 6.44788 0.989565 8.02512C0.336254 9.60235 -3.59534e-07 11.2928 0 13C3.59534e-07 14.7072 0.336256 16.3977 0.989567 17.9749C1.64288 19.5521 2.60045 20.9852 3.80761 22.1924L13 13L22.1924 3.80761Z" fill="#2F2F2F"/>
    <mask id="path-2-inside-1_415_44" fill="white">
        <path d="M3.80761 22.1924C5.01478 23.3995 6.44788 24.3571 8.02512 25.0104C9.60235 25.6637 11.2928 26 13 26C14.7072 26 16.3977 25.6637 17.9749 25.0104C19.5521 24.3571 20.9852 23.3995 22.1924 22.1924C23.3996 20.9852 24.3571 19.5521 25.0104 17.9749C25.6637 16.3976 26 14.7072 26 13C26 11.2928 25.6637 9.60235 25.0104 8.02511C24.3571 6.44788 23.3995 5.01477 22.1924 3.80761L13 13L3.80761 22.1924Z"/>
    </mask>
    <path d="M3.80761 22.1924C5.01478 23.3995 6.44788 24.3571 8.02512 25.0104C9.60235 25.6637 11.2928 26 13 26C14.7072 26 16.3977 25.6637 17.9749 25.0104C19.5521 24.3571 20.9852 23.3995 22.1924 22.1924C23.3996 20.9852 24.3571 19.5521 25.0104 17.9749C25.6637 16.3976 26 14.7072 26 13C26 11.2928 25.6637 9.60235 25.0104 8.02511C24.3571 6.44788 23.3995 5.01477 22.1924 3.80761L13 13L3.80761 22.1924Z" fill="white" stroke="#2F2F2F" stroke-width="0.2" mask="url(#path-2-inside-1_415_44)"/>
</svg>