<svg id="edit-btn" version="1.2" xmlns="http://www.w3.org/2000/svg" viewBox="0 0 4 18" width="4" height="18">
    <title>editBtn-svg</title>
    <style>
        .s0 { fill: #000000 } 
    </style>
    <path id="Layer" class="s0" d="m0 9c0-1.1 0.9-2 2-2 1.1 0 2 0.9 2 2 0 1.1-0.9 2-2 2-1.1 0-2-0.9-2-2z"></path>
    <path id="Layer" class="s0" d="m0 16c0-1.1 0.9-2 2-2 1.1 0 2 0.9 2 2 0 1.1-0.9 2-2 2-1.1 0-2-0.9-2-2z"></path>
    <path id="Layer" class="s0" d="m0 2c0-1.1 0.9-2 2-2 1.1 0 2 0.9 2 2 0 1.1-0.9 2-2 2-1.1 0-2-0.9-2-2z"></path>
</svg>